<?xml version="1.0" encoding="utf-8"?>
<!-- Generator: Adobe Illustrator 15.0.0, SVG Export Plug-In . SVG Version: 6.00 Build 0)  -->
<!DOCTYPE svg PUBLIC "-//W3C//DTD SVG 1.1//EN" "http://www.w3.org/Graphics/SVG/1.1/DTD/svg11.dtd">
<svg version="1.1" id="Capa_1" xmlns="http://www.w3.org/2000/svg" xmlns:xlink="http://www.w3.org/1999/xlink" x="0px" y="0px"
	 width="113.008px" height="612.11px" viewBox="249.531 -249.651 113.008 612.11"
	 enable-background="new 249.531 -249.651 113.008 612.11" xml:space="preserve">
<g>
	<path fill="#FFFFFF" fill-opacity="0.3" d="M307.504-249.651c2.376,17.318,3.761,37.096,3.714,60.452
		c-0.307,153-61.378,152.877-61.686,305.877c-0.26,129.644,43.532,149.54,56.722,245.67l55.479,0.111l1.229-611.999L307.504-249.651
		z"/>
	<path fill="#FFFFFF" fill-opacity="0.5" d="M336.914-249.592c6.055,20.792,9.82,45.231,9.759,75.764
		c-0.307,153-95.921,152.808-96.228,305.807c-0.246,122.463,60.948,147.042,85.252,230.428l26.035,0.052l1.229-611.999
		L336.914-249.592z"/>
	<path fill="#FFFFFF" d="M362.961-249.54l-3.644-0.007c1.901,13.487,2.954,28.406,2.92,45.15
		c-0.307,153-90.627,152.818-90.934,305.818c-0.273,136.266,71.321,151.313,86.787,261.03l3.643,0.007L362.961-249.54z"/>
</g>
</svg>
