              <svg id="sw-js-blob-svg" viewBox="6 10 14 79" xmlns="http://www.w3.org/2000/svg" version="1.1">
                    <defs> 
                        <linearGradient id="sw-gradient" x1="0" x2="1" y1="1" y2="0">
                            <stop id="stop1" stop-color="rgba(233, 27, 34, 1)" offset="0%"></stop>
                            <stop id="stop2" stop-color="rgba(233, 27, 34, 1)" offset="100%"></stop>
                        </linearGradient>
                    </defs>
                <path fill="url(#sw-gradient)" d="M17.8,-28.9C22.9,-24.4,26.7,-19.2,31.7,-13.1C36.7,-7,42.8,0,42.8,6.8C42.8,13.5,36.7,20,30.3,24.8C23.9,29.6,17.2,32.7,10.1,35.1C3,37.5,-4.5,39.2,-12.2,38.4C-19.8,37.5,-27.6,34.1,-32,28.2C-36.4,22.3,-37.3,13.9,-36.7,6.4C-36,-1.1,-33.8,-7.8,-31.7,-15.4C-29.7,-23.1,-27.8,-31.7,-22.6,-36.2C-17.3,-40.7,-8.7,-41,-1.2,-39.2C6.3,-37.4,12.7,-33.5,17.8,-28.9Z" width="100%" height="100%" transform="translate(50 50)" stroke-width="0" style="transition: all 0.3s ease 0s;" stroke="url(#sw-gradient)"></path>
              </svg>